<?xml version="1.0" standalone="no"?>
<!DOCTYPE svg PUBLIC "-//W3C//DTD SVG 20010904//EN"
 "http://www.w3.org/TR/2001/REC-SVG-20010904/DTD/svg10.dtd">
<svg version="1.0" xmlns="http://www.w3.org/2000/svg"
 width="256.000000pt" height="256.000000pt" viewBox="0 0 256.000000 256.000000"
 preserveAspectRatio="xMidYMid meet">

<g transform="translate(0.000000,256.000000) scale(0.100000,-0.100000)"
fill="#000000" stroke="none">
<path d="M740 2407 c-24 -12 -56 -38 -71 -57 -35 -45 -220 -491 -227 -547 -8
-69 16 -132 68 -183 39 -38 73 -56 224 -118 206 -84 255 -97 351 -89 90 7 169
37 245 93 33 24 64 44 68 44 5 0 84 -31 176 -70 134 -56 171 -68 187 -60 22
12 25 43 7 58 -7 5 -62 30 -123 55 -60 25 -131 55 -157 66 l-48 20 25 48 c13
27 28 68 34 92 5 23 11 44 13 46 1 1 105 -40 230 -92 l226 -95 -10 -30 c-16
-44 13 -77 100 -112 61 -25 75 -28 97 -18 14 7 30 23 35 37 5 14 12 25 14 25
3 0 33 -12 68 -27 103 -43 129 -76 108 -137 -12 -37 -44 -70 -77 -80 -15 -5
-77 16 -205 69 -100 42 -192 74 -203 73 -15 -2 -20 -10 -20 -33 0 -29 4 -31
185 -107 187 -78 231 -89 287 -67 96 36 145 177 91 260 -29 43 -175 118 -230
119 -37 0 -70 -21 -79 -49 -3 -9 -18 -7 -51 8 -46 20 -47 21 -37 51 9 24 8 35
-4 54 -16 23 -31 30 -366 170 l-155 64 -12 60 c-25 122 -89 226 -180 291 -30
21 -137 73 -238 115 -159 66 -192 76 -243 76 -43 0 -72 -6 -103 -23z m306
-123 c201 -84 207 -87 267 -142 104 -98 121 -192 60 -325 -77 -164 -251 -257
-438 -235 -53 6 -292 95 -387 144 -46 24 -38 62 68 317 103 249 109 261 151
288 52 35 105 25 279 -47z"/>
<path d="M839 2170 c-46 -24 -57 -41 -114 -184 -51 -128 -54 -165 -17 -216 49
-66 124 -87 192 -52 45 22 68 59 120 187 34 86 42 114 38 149 -13 109 -122
167 -219 116z m121 -85 c29 -31 25 -60 -29 -185 -43 -100 -60 -120 -98 -120
-27 0 -73 41 -73 65 0 33 83 221 107 243 31 29 64 28 93 -3z"/>
<path d="M1050 1123 c-24 -4 -543 -118 -586 -129 -17 -5 -22 0 -27 25 -4 20
-18 38 -39 51 -29 18 -51 20 -181 20 l-149 0 -34 -34 -35 -35 3 -147 c3 -134
5 -148 23 -160 42 -27 50 -6 55 148 l5 143 138 3 137 3 0 -336 0 -335 -140 0
-139 0 -3 121 c-3 103 -6 124 -21 133 -12 8 -22 8 -35 0 -14 -10 -17 -30 -20
-143 l-3 -132 29 -29 c36 -36 86 -44 239 -38 115 4 116 5 144 36 16 18 29 39
29 47 0 8 4 15 10 15 5 0 205 -49 443 -110 372 -94 445 -110 513 -110 63 0
177 21 564 105 530 115 532 116 572 196 49 95 -16 209 -118 209 -17 0 -177
-23 -355 -50 -372 -58 -320 -59 -659 16 -113 26 -213 53 -222 62 -22 18 -23
42 -4 67 13 18 20 18 154 6 159 -14 201 -8 253 36 95 81 69 231 -51 293 -81
42 -372 73 -490 53z m296 -83 c183 -31 224 -57 224 -139 0 -32 -6 -44 -31 -65
-35 -30 -75 -33 -224 -15 -49 5 -104 7 -121 4 -66 -12 -112 -91 -93 -160 18
-64 52 -79 304 -135 316 -71 320 -71 674 -16 390 61 401 61 401 -14 0 -35 -19
-62 -57 -84 -24 -13 -929 -207 -993 -212 -59 -5 -104 4 -505 105 -242 61 -450
116 -463 121 -22 10 -22 10 -22 244 l0 235 38 10 c90 23 545 122 598 130 95
14 144 12 270 -9z"/>
</g>
</svg>
